<svg id="Layer_1" data-name="Layer 1" xmlns="http://www.w3.org/2000/svg" xmlns:xlink="http://www.w3.org/1999/xlink" viewBox="0 0 100 100"><defs><linearGradient id="linear-gradient" x1="-241.36" y1="210.62" x2="-166.03" y2="130.76" gradientTransform="matrix(1, 0, 0, -1, 262, 229.5)" gradientUnits="userSpaceOnUse"><stop offset="0" stop-color="#e5422b"/><stop offset="0.74" stop-color="#754796"/><stop offset="1" stop-color="#184cef"/></linearGradient></defs><title>title-to-sidebar</title><path d="M90,0H10A10,10,0,0,0,0,10V90a10,10,0,0,0,10,10H90a10,10,0,0,0,10-10V10A10,10,0,0,0,90,0Z" style="fill:url(#linear-gradient)"/><path d="M87.73,86A5.32,5.32,0,0,0,93,80.67V19.33A5.32,5.32,0,0,0,87.73,14H6v2.67H87.73a2.62,2.62,0,0,1,2.63,2.66V80.67a2.62,2.62,0,0,1-2.63,2.66H6V86H87.73Zm-33-2.67a1.29,1.29,0,0,0,.93-.39,1.33,1.33,0,0,0,0-1.88,1.29,1.29,0,0,0-.93-.39,1.31,1.31,0,0,0-.93.39,1.33,1.33,0,0,0,0,1.88A1.31,1.31,0,0,0,54.77,83.33Zm0-66.66a1.31,1.31,0,0,0-.93.39,1.33,1.33,0,0,0,0,1.88,1.31,1.31,0,0,0,.93.39,1.29,1.29,0,0,0,.93-.39,1.33,1.33,0,0,0,0-1.88A1.29,1.29,0,0,0,54.77,16.67Zm0,61.33a1.29,1.29,0,0,0,.93-.39,1.34,1.34,0,0,0,0-1.89,1.29,1.29,0,0,0-.93-.39,1.31,1.31,0,0,0-.93.39,1.34,1.34,0,0,0,0,1.89A1.31,1.31,0,0,0,54.77,78Zm0-5.33a1.29,1.29,0,0,0,.93-.39,1.34,1.34,0,0,0,0-1.89,1.29,1.29,0,0,0-.93-.39,1.31,1.31,0,0,0-.93.39,1.34,1.34,0,0,0,0,1.89A1.31,1.31,0,0,0,54.77,72.67Zm0-5.34a1.29,1.29,0,0,0,.93-.39,1.33,1.33,0,0,0,0-1.88,1.29,1.29,0,0,0-.93-.39,1.31,1.31,0,0,0-.93.39,1.33,1.33,0,0,0,0,1.88A1.31,1.31,0,0,0,54.77,67.33Zm0-5.33a1.29,1.29,0,0,0,.93-.39,1.34,1.34,0,0,0,0-1.89,1.29,1.29,0,0,0-.93-.39,1.31,1.31,0,0,0-.93.39,1.34,1.34,0,0,0,0,1.89A1.31,1.31,0,0,0,54.77,62Zm0-5.33a1.29,1.29,0,0,0,.93-.39,1.34,1.34,0,0,0,0-1.89,1.29,1.29,0,0,0-.93-.39,1.31,1.31,0,0,0-.93.39,1.34,1.34,0,0,0,0,1.89A1.31,1.31,0,0,0,54.77,56.67Zm0-5.34a1.29,1.29,0,0,0,.93-.39,1.33,1.33,0,0,0,0-1.88,1.29,1.29,0,0,0-.93-.39,1.31,1.31,0,0,0-.93.39,1.33,1.33,0,0,0,0,1.88A1.31,1.31,0,0,0,54.77,51.33Zm0-5.33a1.29,1.29,0,0,0,.93-.39,1.34,1.34,0,0,0,0-1.89,1.29,1.29,0,0,0-.93-.39,1.31,1.31,0,0,0-.93.39,1.34,1.34,0,0,0,0,1.89A1.31,1.31,0,0,0,54.77,46Zm0-5.33a1.29,1.29,0,0,0,.93-.39,1.34,1.34,0,0,0,0-1.89,1.29,1.29,0,0,0-.93-.39,1.31,1.31,0,0,0-.93.39,1.34,1.34,0,0,0,0,1.89A1.31,1.31,0,0,0,54.77,40.67Zm0-5.34a1.29,1.29,0,0,0,.93-.39,1.33,1.33,0,0,0,0-1.88,1.29,1.29,0,0,0-.93-.39,1.31,1.31,0,0,0-.93.39,1.33,1.33,0,0,0,0,1.88A1.31,1.31,0,0,0,54.77,35.33Zm26.37-4A2.6,2.6,0,0,0,83,30.55a2.69,2.69,0,0,0,0-3.77A2.6,2.6,0,0,0,81.14,26a2.64,2.64,0,0,0-1.87.78,2.69,2.69,0,0,0,0,3.77A2.64,2.64,0,0,0,81.14,31.33ZM74.55,30V27.33H61.36V30ZM54.77,30a1.29,1.29,0,0,0,.93-.39,1.34,1.34,0,0,0,0-1.89,1.29,1.29,0,0,0-.93-.39,1.31,1.31,0,0,0-.93.39,1.34,1.34,0,0,0,0,1.89A1.31,1.31,0,0,0,54.77,30Zm0-5.33a1.29,1.29,0,0,0,.93-.39,1.34,1.34,0,0,0,0-1.89,1.29,1.29,0,0,0-.93-.39,1.31,1.31,0,0,0-.93.39,1.34,1.34,0,0,0,0,1.89A1.31,1.31,0,0,0,54.77,24.67Z" style="fill:#fff"/><path d="M33,67H26V38.05H17.15V32H41.83v6H33Z" style="fill:#fff"/><path d="M81.14,75A2.6,2.6,0,0,0,83,74.22a2.69,2.69,0,0,0,0-3.77,2.6,2.6,0,0,0-1.86-.78,2.64,2.64,0,0,0-1.87.78,2.69,2.69,0,0,0,0,3.77A2.64,2.64,0,0,0,81.14,75Z" style="fill:#fff;opacity:0.55"/><rect x="61.36" y="71" width="13.18" height="2.67" style="fill:#fff;opacity:0.55"/><path d="M81.14,64.33A2.6,2.6,0,0,0,83,63.55a2.69,2.69,0,0,0,0-3.77A2.6,2.6,0,0,0,81.14,59a2.64,2.64,0,0,0-1.87.78,2.69,2.69,0,0,0,0,3.77A2.64,2.64,0,0,0,81.14,64.33Z" style="fill:#fff;opacity:0.55"/><rect x="61.36" y="60.33" width="13.18" height="2.67" style="fill:#fff;opacity:0.55"/><path d="M81.14,53.67A2.6,2.6,0,0,0,83,52.89a2.7,2.7,0,0,0,0-3.78,2.6,2.6,0,0,0-1.86-.78,2.64,2.64,0,0,0-1.87.78,2.7,2.7,0,0,0,0,3.78A2.64,2.64,0,0,0,81.14,53.67Z" style="fill:#fff;opacity:0.55"/><rect x="61.36" y="49.67" width="13.18" height="2.67" style="fill:#fff;opacity:0.55"/><path d="M81.14,43A2.6,2.6,0,0,0,83,42.22a2.69,2.69,0,0,0,0-3.77,2.6,2.6,0,0,0-1.86-.78,2.64,2.64,0,0,0-1.87.78,2.69,2.69,0,0,0,0,3.77A2.64,2.64,0,0,0,81.14,43Z" style="fill:#fff;opacity:0.55"/><rect x="61.36" y="39" width="13.18" height="2.67" style="fill:#fff;opacity:0.55"/></svg>